<?xml version="1.0" standalone="no"?>
<!DOCTYPE svg PUBLIC "-//W3C//DTD SVG 20010904//EN"
 "http://www.w3.org/TR/2001/REC-SVG-20010904/DTD/svg10.dtd">
<svg version="1.0" xmlns="http://www.w3.org/2000/svg"
 width="300.000000pt" height="300.000000pt" viewBox="0 0 300.000000 300.000000"
 preserveAspectRatio="xMidYMid meet">

<g transform="translate(0.000000,300.000000) scale(0.100000,-0.100000)"
fill="#000000" stroke="none">
<path d="M1100 2494 c-107 -20 -245 -60 -314 -94 -51 -24 -61 -26 -74 -14 -75
75 -224 57 -338 -40 -122 -104 -284 -441 -284 -589 0 -52 22 -137 47 -179 25
-43 60 -67 112 -76 l43 -7 29 -78 c54 -150 155 -298 275 -405 137 -124 351
-242 503 -279 39 -10 109 -16 171 -16 136 0 239 26 389 99 l115 56 55 -22 c81
-33 329 -157 488 -244 76 -41 160 -80 186 -86 95 -21 177 22 222 114 65 132
31 307 -80 418 -31 31 -276 189 -437 282 -27 16 -48 31 -48 35 0 11 275 -15
428 -40 151 -24 197 -22 253 15 58 39 84 95 84 186 0 90 -30 163 -96 235 -100
108 -178 130 -629 180 -129 15 -251 30 -270 34 l-35 7 -17 94 c-42 228 -176
358 -419 410 -107 23 -245 24 -359 4z m355 -79 c146 -31 262 -113 311 -220 27
-58 52 -170 41 -182 -10 -10 -113 24 -182 61 -33 17 -100 70 -154 121 -52 50
-91 83 -86 75 47 -80 125 -187 158 -216 47 -40 128 -83 202 -107 89 -29 185
-45 460 -77 149 -17 303 -38 343 -45 191 -37 303 -146 305 -297 0 -69 -19
-103 -76 -131 -35 -18 -40 -18 -154 2 -65 11 -197 27 -293 35 -96 9 -251 23
-345 32 -166 16 -322 14 -390 -4 -26 -8 -21 -10 39 -16 38 -4 121 -16 185 -27
100 -17 128 -26 217 -74 132 -69 521 -309 555 -341 50 -48 82 -121 87 -202 6
-91 -10 -143 -56 -184 -32 -27 -41 -30 -86 -26 -41 3 -78 19 -181 78 -293 166
-586 296 -743 330 -103 23 -262 37 -247 23 6 -5 71 -31 145 -57 74 -27 141
-52 149 -56 9 -5 -7 -17 -50 -38 -169 -79 -345 -102 -497 -64 -167 42 -338
141 -481 277 -132 126 -202 238 -256 405 -22 71 -26 95 -20 150 12 129 112
366 209 498 99 133 288 234 520 277 98 18 286 18 371 0z m-805 -71 c6 -6 -15
-29 -50 -57 -139 -110 -290 -409 -321 -632 -10 -71 -14 -82 -29 -78 -73 19
-102 170 -60 306 64 207 194 401 305 454 38 18 62 23 98 20 27 -2 52 -8 57
-13z"/>
<path d="M617 2054 c-4 -4 -7 -18 -7 -31 0 -28 30 -42 198 -97 122 -39 153
-43 172 -22 24 30 -6 49 -151 99 -154 52 -200 63 -212 51z"/>
<path d="M541 1846 c-6 -7 -8 -21 -5 -30 11 -28 194 -126 417 -224 48 -21 48
-21 68 -1 32 32 10 52 -118 108 -65 29 -162 77 -216 107 -102 56 -127 63 -146
40z"/>
<path d="M487 1683 c-4 -3 -7 -17 -7 -29 0 -16 24 -44 81 -93 122 -105 212
-165 238 -156 17 5 21 13 19 33 -2 19 -21 39 -74 77 -40 27 -103 78 -142 113
-64 57 -98 73 -115 55z"/>
</g>
</svg>
